# xmcd CD database file
#
# Track frame offsets:
#	150
#	15225
#	32325
#
# Disc length: 630 seconds
#
# Revision: 1
# Processed by: cddbd v1.5.1PL0 Copyright (c) Steve Scherf et al.
# Submitted via: freeDBTagger 0.5
#
DISCID=0f027403
DTITLE=W - Missラブ探偵
DYEAR=2005
DGENRE=misc
TTITLE0=Missラブ探偵
TTITLE1=FRIEND SHIP
TTITLE2=Missラブ探偵(Instrumental)
EXTD=
EXTT0=
EXTT1=
EXTT2=
PLAYORDER=
